# xmcd
#
# Track frame offsets:
# 150
# 11968
# 22845
# 34012
# 48463
# 59364
# 71763
# 87904
# 100487
# 125263
#
# Disc length: 1782 seconds
#
# Revision: 1
# Processed by: cddbd v1.5PL3 Copyright (c) Steve Scherf et al.
# Submitted via: Easy CD Ripper v2.27
#
DISCID=8206f40a
DTITLE=Gentle Ben and His Sensitive Side - The Beginning Of The End
DYEAR=2004
DGENRE=Blues
TTITLE0=The Beginning of the End - Gentle Ben and His Sensitive Side
TTITLE1=Falling - Gentle Ben and His Sensitive Side
TTITLE2=I Don't Think She Loves Me - Gentle Ben and His Sensitive Side
TTITLE3=I Can't Hurt You - Gentle Ben and His Sensitive Side
TTITLE4=Falling In Love - Gentle Ben and His Sensitive Side
TTITLE5=Lo Siento - Gentle Ben and His Sensitive Side
TTITLE6=Don't Wait - Gentle Ben and His Sensitive Side
TTITLE7=Moonlight Sea - Gentle Ben and His Sensitive Side
TTITLE8=Spell Of The Moon - Gentle Ben and His Sensitive Side
TTITLE9=Happiness - Gentle Ben and His Sensitive Side
EXTD=Gentle Ben and His Sensitive Side
EXTT0=
EXTT1=
EXTT2=
EXTT3=
EXTT4=
EXTT5=
EXTT6=
EXTT7=
EXTT8=
EXTT9=
PLAYORDER=
